HIERARCHY
ROOT Hips
{
  OFFSET 0 0 0
  CHANNELS 6 Xposition Yposition Zposition Zrotation Yrotation Xrotation
  JOINT LeftThigh
  {
    OFFSET 8.409438 0 -5.917753
    CHANNELS 3 Zrotation Yrotation Xrotation
    JOINT LeftLeg
    {
      OFFSET 0 0 -42.358652
      CHANNELS 3 Zrotation Yrotation Xrotation
      JOINT LeftFoot
      {
        OFFSET 0 0 -39.357303
        CHANNELS 3 Zrotation Yrotation Xrotation
      }
    }
  }
  JOINT RightThigh
  {
    OFFSET -8.409438 0 -5.917753
    CHANNELS 3 Zrotation Yrotation Xrotation
    JOINT RightLeg
    {
      OFFSET 0 0 -42.358652
      CHANNELS 3 Zrotation Yrotation Xrotation
      JOINT RightFoot
      {
        OFFSET 0 0 -39.357303
        CHANNELS 3 Zrotation Yrotation Xrotation
      }
    }
  }
  JOINT SpineLow
  {
    OFFSET 0 0 4.719101
    CHANNELS 3 Zrotation Yrotation Xrotation
    JOINT SpineMid
    {
      OFFSET 0 0 12.899191
      CHANNELS 3 Zrotation Yrotation Xrotation
      JOINT Chest
      {
        OFFSET 0 0 12.899191
        CHANNELS 3 Zrotation Yrotation Xrotation
        JOINT LeftShoulder
        {
          OFFSET 7.550562 1.41573 9.438202
          CHANNELS 3 Zrotation Yrotation Xrotation
          JOINT LeftArm
          {
            OFFSET 9.155056 0 4.247191
            CHANNELS 3 Zrotation Yrotation Xrotation
            JOINT LeftForearm
            {
              OFFSET 0 0 25.771955
              CHANNELS 3 Zrotation Yrotation Xrotation
              JOINT LeftHand
              {
                OFFSET 0 0 25.197169
                CHANNELS 3 Zrotation Yrotation Xrotation
              }
            }
          }
        }
        JOINT RightShoulder
        {
          OFFSET -7.550562 1.41573 9.438202
          CHANNELS 3 Zrotation Yrotation Xrotation
          JOINT RightArm
          {
            OFFSET -9.155056 0 4.247191
            CHANNELS 3 Zrotation Yrotation Xrotation
            JOINT RightForearm
            {
              OFFSET 0 0 -25.771955
              CHANNELS 3 Zrotation Yrotation Xrotation
              JOINT RightHand
              {
                OFFSET 0 0 -25.197169
                CHANNELS 3 Zrotation Yrotation Xrotation
              }
            }
          }
        }
        JOINT Neck
        {
          OFFSET 0 0 15.101124
          CHANNELS 3 Zrotation Yrotation Xrotation
          JOINT Head
          {
            OFFSET 0 0 11.325843
            CHANNELS 3 Zrotation Yrotation Xrotation
            End Site
            {
              OFFSET 0 0 14.157303
            }
          }
        }
      }
    }
  }
}
MOTION
Frames: 7
Frame Time: 0.0
0.0  101.685394  0.0  -1.02192  -25.549706  -97.707638  23.529726  -26.179104  -38.292247  12.539417  9.902613  61.582414  -2.725239  3.143307  1.276313  -2.206078  17.606215  10.230727  -12.191393  8.423026  18.445169  0.931052  8.681677  -4.690581  -1.99979  -0.194773  2.629319  -5.48  -0.314125  7.197483  -5.48  -0.314125  7.197483  6.064302  25.2467  2.335534  -170.999625  58.408286  -119.077175  -27.608166  -22.206268  97.41913  112.927062  32.1231  -21.295921  10.018142  -5.805988  12.151528  99.055732  36.449715  38.388653  -13.6743  18.464437  -88.295126  53.036741  1.569585  29.336245  10.736484  0.260378  -4.788217  8.054976  0.111197  -3.597048  
0.0  101.685394  0.0  -0.826837  -24.552019  -97.529423  22.442995  -25.723703  -38.394475  12.749654  9.84358  61.518929  -3.026855  3.091401  1.066376  -2.306054  17.752679  10.628097  -12.724772  8.251142  17.731723  0.648026  8.829369  -4.694497  -1.865631  -0.13505  2.55846  -5.107244  -0.171297  6.998941  -5.107245  -0.171297  6.998941  5.991135  24.795549  2.793897  -176.082332  57.548149  -122.996261  -28.050762  -20.92664  98.791674  112.516733  32.069637  -23.737423  9.760307  -6.062477  12.143759  98.917918  39.415998  37.204293  -13.733445  16.9041  -88.903359  53.820753  0.827636  29.376364  10.033038  -0.067724  -4.685187  7.524784  -0.127772  -3.513902  
0.0  101.685394  0.0  -0.596432  -23.619433  -97.402078  21.479043  -25.24538  -38.45805  12.688875  9.831713  61.325832  -3.066997  3.242044  0.956235  -2.230038  17.92907  11.167298  -13.299121  7.992222  16.919287  0.353727  8.942823  -4.667761  -1.729616  -0.071763  2.4776  -4.729377  -0.018813  6.773421  -4.729377  -0.018813  6.77342  5.662944  24.329236  3.223543  179.254796  56.36151  -126.902141  -36.763329  -28.672668  90.33752  103.351661  17.1074  -23.545638  9.570539  -6.404973  12.115937  98.746916  42.412737  36.095757  -13.795396  15.298329  -89.490748  54.668683  0.160707  29.483451  9.355898  -0.385736  -4.497595  7.01451  -0.358288  -3.368214  
0.0  101.685394  0.0  -0.380506  -22.498599  -97.178656  20.50635  -24.606684  -38.603227  12.627163  9.917311  61.199072  -3.123234  3.237182  0.751719  -2.252697  18.096554  11.715721  -13.970901  7.673045  16.01874  0.076866  9.074821  -4.632611  -1.627788  -0.018217  2.372983  -4.446262  0.109841  6.484164  -4.446262  0.109841  6.484164  5.879982  23.956159  3.970973  174.316635  55.032912  -130.698143  -38.018588  -27.07512  92.234143  103.269175  16.858272  -25.065204  9.631361  -6.716459  12.13464  98.287309  45.513261  34.960291  -13.977565  13.836674  -90.012351  55.583584  -0.471844  29.674527  8.718661  -0.626531  -4.269037  6.534934  -0.530966  -3.193579  
0.0  101.685394  0.0  0.030845  -22.749109  -97.554966  20.78747  -24.087007  -38.190829  12.447344  10.018678  61.064281  -3.057015  3.294653  0.547802  -0.64605  18.239958  12.893022  -14.686232  7.314083  15.056302  -0.284823  9.198143  -4.60066  -1.328274  0.056401  2.329017  -3.621424  0.281752  6.360864  -3.621425  0.281752  6.360865  6.210197  23.58433  4.880969  169.53837  53.434272  -134.436267  -39.120065  -25.647283  94.003924  101.693361  18.230893  -28.265269  9.776464  -6.989277  12.271165  97.806105  48.632812  33.894954  -14.344238  12.569693  -90.4618  56.506421  -1.091519  29.834951  8.156605  -0.791429  -3.967185  6.112527  -0.646693  -2.965405  
0.0  101.685394  0.0  0.16616  -21.571866  -97.244053  20.022319  -23.369126  -38.34873  12.076805  10.350162  60.766999  -2.771242  3.333363  0.405207  -0.516173  18.243284  13.55613  -15.533269  6.928648  14.060668  -0.716664  9.326805  -4.576763  -1.242663  0.077945  2.179157  -3.386529  0.324675  5.950738  -3.386529  0.324675  5.950739  6.700281  23.241951  5.982572  164.635146  51.688558  -138.191105  -40.071017  -24.369101  95.602021  101.470986  18.199012  -30.018219  10.044457  -7.256217  12.493912  97.091427  51.727045  32.846877  -14.880721  11.42772  -90.816431  57.432353  -1.634248  29.88149  7.574241  -0.889765  -3.6193  5.675534  -0.712341  -2.703884  
0.0  101.685394  0.0  0.532822  -21.351445  -97.419404  20.07831  -22.733783  -38.04374  11.733004  10.731946  60.432432  -2.338923  3.405022  0.377159  0.374812  18.331752  14.5305  -16.143384  6.616551  13.064947  -1.098828  9.420701  -4.561475  -1.027641  0.128196  2.072417  -2.795639  0.438045  5.658197  -2.795639  0.438045  5.658197  7.259104  22.932158  7.215865  160.048904  49.811772  -141.813682  -40.905725  -23.06433  97.069983  101.158087  18.14457  -31.719004  9.155823  -8.086462  12.03991  98.471725  53.687823  33.116535  -15.525053  10.310761  -91.086895  58.395195  -2.114146  29.808679  7.083986  -0.942455  -3.221626  5.308077  -0.744329  -2.405623  
